<svg width="24" height="24" viewBox="0 0 24 24" fill="none" xmlns="http://www.w3.org/2000/svg">
<path fill-rule="evenodd" clip-rule="evenodd" d="M12 22C17.5229 22 22 17.5229 22 12C22 6.47715 17.5229 2 12 2C6.47715 2 2 6.47715 2 12C2 17.5229 6.47715 22 12 22Z" stroke="currentColor" stroke-width="2" stroke-linecap="round" stroke-linejoin="round"/>
<path d="M2 12H22" stroke="currentColor" stroke-width="2" stroke-linecap="round" stroke-linejoin="round"/>
<path fill-rule="evenodd" clip-rule="evenodd" d="M12 22C14.2092 22 16 17.5229 16 12C16 6.47715 14.2092 2 12 2C9.79085 2 8 6.47715 8 12C8 17.5229 9.79085 22 12 22Z" stroke="currentColor" stroke-width="2" stroke-linecap="round" stroke-linejoin="round"/>
<path d="M4.92896 5.07104C6.7386 6.88069 9.2386 7.99999 12 7.99999C14.7615 7.99999 17.2615 6.88069 19.0711 5.07104" stroke="currentColor" stroke-width="2" stroke-linecap="round" stroke-linejoin="round"/>
<path d="M19.0711 18.9289C17.2615 17.1193 14.7615 16 12 16C9.2386 16 6.7386 17.1193 4.92896 18.9289" stroke="currentColor" stroke-width="2" stroke-linecap="round" stroke-linejoin="round"/>
</svg>
